<?xml version="1.0" encoding="utf-8"?>
<!-- Generator: Adobe Illustrator 16.0.0, SVG Export Plug-In . SVG Version: 6.00 Build 0)  -->
<!DOCTYPE svg PUBLIC "-//W3C//DTD SVG 1.1//EN" "http://www.w3.org/Graphics/SVG/1.1/DTD/svg11.dtd">
<svg version="1.1" id="arrow-next" xmlns="http://www.w3.org/2000/svg" xmlns:xlink="http://www.w3.org/1999/xlink" x="0px" y="0px"
	 width="20px" height="7.908px" viewBox="-0.5 0.189 20 7.908" enable-background="new -0.5 0.189 20 7.908" xml:space="preserve">
<path d="M15.762,8.098c-0.122,0-0.244-0.044-0.34-0.134c-0.203-0.188-0.215-0.504-0.026-0.706l2.426-2.614H0
	c-0.276,0-0.5-0.224-0.5-0.5s0.224-0.5,0.5-0.5h17.886L15.46,1.03c-0.188-0.203-0.177-0.519,0.026-0.707
	c0.2-0.188,0.518-0.176,0.706,0.026l3.172,3.417c0.035,0.038,0.063,0.08,0.086,0.124v0c0,0,0,0,0,0
	c0.032,0.067,0.049,0.14,0.05,0.213c0.001,0.074-0.015,0.149-0.048,0.218c0,0,0,0,0,0.001l0,0C19.43,4.37,19.4,4.414,19.363,4.453
	l-3.235,3.485C16.029,8.044,15.896,8.098,15.762,8.098z"/>
</svg>
