<?xml version="1.0" encoding="utf-8"?>
<!-- Generator: Adobe Illustrator 16.0.0, SVG Export Plug-In . SVG Version: 6.00 Build 0)  -->
<!DOCTYPE svg PUBLIC "-//W3C//DTD SVG 1.1//EN" "http://www.w3.org/Graphics/SVG/1.1/DTD/svg11.dtd">
<svg version="1.1" id="arrow-previous" xmlns="http://www.w3.org/2000/svg" xmlns:xlink="http://www.w3.org/1999/xlink" x="0px"
	 y="0px" width="20px" height="8px" viewBox="0.5 -0.5 20 8" enable-background="new 0.5 -0.5 20 8" xml:space="preserve">
<path d="M4.239,7.5c-0.135,0-0.27-0.055-0.369-0.162L0.635,3.806C0.598,3.767,0.569,3.723,0.547,3.677
	c0,0,0,0,0-0.001l0,0C0.516,3.61,0.5,3.539,0.5,3.468c0-0.075,0.016-0.15,0.049-0.219c0,0,0,0,0,0v0
	c0.021-0.044,0.05-0.086,0.085-0.124l3.171-3.461c0.187-0.203,0.502-0.217,0.707-0.031c0.204,0.187,0.217,0.503,0.031,0.707L2.104,3
	H20c0.276,0,0.5,0.224,0.5,0.5S20.276,4,20,4H2.168l2.439,2.662C4.794,6.866,4.78,7.183,4.577,7.369C4.48,7.457,4.359,7.5,4.239,7.5
	z"/>
</svg>
